<?xml version="1.0" encoding="UTF-8" standalone="no"?>
<!DOCTYPE svg PUBLIC "-//W3C//DTD SVG 1.1//EN"
 "http://www.w3.org/Graphics/SVG/1.1/DTD/svg11.dtd">
<!-- Generated by graphviz version 2.38.0 (20140413.2041)
 -->
<!-- Title: G Pages: 1 -->
<svg width="244pt" height="188pt"
 viewBox="0.00 0.00 243.53 188.00" xmlns="http://www.w3.org/2000/svg" xmlns:xlink="http://www.w3.org/1999/xlink">
<g id="graph0" class="graph" transform="scale(1 1) rotate(0) translate(4 184)">
<title>G</title><style>.edge>path:hover{stroke-width:8}</style>
<polygon fill="white" stroke="none" points="-4,4 -4,-184 239.526,-184 239.526,4 -4,4"/>
<!-- GitlabWrapper -->
<g id="node1" class="node"><title>GitlabWrapper</title><style>.edge>path:hover{stroke-width:8}</style>
<ellipse fill="#46a446" stroke="black" cx="113.738" cy="-18" rx="46.5087" ry="18"/>
<text text-anchor="middle" x="113.738" y="-15.5" font-family="Helvetica,sans-Serif" font-size="10.00" fill="#ffffff">GitlabWrapper</text>
</g>
<!-- requests_auth -->
<g id="node2" class="node"><title>requests_auth</title><style>.edge>path:hover{stroke-width:8}</style>
<ellipse fill="#5353b6" stroke="black" cx="44.7384" cy="-162" rx="44.978" ry="18"/>
<text text-anchor="middle" x="44.7384" y="-159.5" font-family="Helvetica,sans-Serif" font-size="10.00" fill="#ffffff">requests.auth</text>
</g>
<!-- requests_auth&#45;&gt;GitlabWrapper -->
<g id="edge3" class="edge"><title>requests_auth&#45;&gt;GitlabWrapper</title><style>.edge>path:hover{stroke-width:8}</style>
<path fill="none" stroke="black" d="M45.6709,-143.668C47.2862,-125.016 51.6972,-94.9435 63.7384,-72 69.558,-60.9111 78.3541,-50.4725 86.9542,-41.8396"/>
<polygon fill="#5353b6" stroke="black" points="89.5666,-44.1845 94.3817,-34.7471 84.7323,-39.122 89.5666,-44.1845"/>
</g>
<!-- GitlabToken -->
<g id="node3" class="node"><title>GitlabToken</title><style>.edge>path:hover{stroke-width:8}</style>
<ellipse fill="#b65353" stroke="black" cx="113.738" cy="-90" rx="40.7358" ry="18"/>
<text text-anchor="middle" x="113.738" y="-87.5" font-family="Helvetica,sans-Serif" font-size="10.00" fill="#ffffff">GitlabToken</text>
</g>
<!-- GitlabToken&#45;&gt;GitlabWrapper -->
<g id="edge1" class="edge"><title>GitlabToken&#45;&gt;GitlabWrapper</title><style>.edge>path:hover{stroke-width:8}</style>
<path fill="none" stroke="black" d="M113.738,-71.6966C113.738,-63.9827 113.738,-54.7125 113.738,-46.1124"/>
<polygon fill="#b65353" stroke="black" points="117.238,-46.1043 113.738,-36.1043 110.238,-46.1044 117.238,-46.1043"/>
</g>
<!-- requests -->
<g id="node4" class="node"><title>requests</title><style>.edge>path:hover{stroke-width:8}</style>
<ellipse fill="#4040c0" stroke="black" cx="203.738" cy="-90" rx="31.577" ry="18"/>
<text text-anchor="middle" x="203.738" y="-87.5" font-family="Helvetica,sans-Serif" font-size="10.00" fill="#ffffff">requests</text>
</g>
<!-- requests&#45;&gt;GitlabWrapper -->
<g id="edge2" class="edge"><title>requests&#45;&gt;GitlabWrapper</title><style>.edge>path:hover{stroke-width:8}</style>
<path fill="none" stroke="black" d="M185.526,-74.8345C172.902,-65.0162 155.857,-51.7589 141.544,-40.6262"/>
<polygon fill="#4040c0" stroke="black" points="143.528,-37.7358 133.486,-34.3591 139.231,-43.2613 143.528,-37.7358"/>
</g>
</g>
</svg>
