<?xml version="1.0" encoding="UTF-8" standalone="no"?>
<!DOCTYPE svg PUBLIC "-//W3C//DTD SVG 1.1//EN"
 "http://www.w3.org/Graphics/SVG/1.1/DTD/svg11.dtd">
<!-- Generated by graphviz version 2.38.0 (20140413.2041)
 -->
<!-- Title: G Pages: 1 -->
<svg width="379pt" height="116pt"
 viewBox="0.00 0.00 378.77 116.00" xmlns="http://www.w3.org/2000/svg" xmlns:xlink="http://www.w3.org/1999/xlink">
<g id="graph0" class="graph" transform="scale(1 1) rotate(0) translate(4 112)">
<title>G</title><style>.edge>path:hover{stroke-width:8}</style>
<polygon fill="white" stroke="none" points="-4,4 -4,-112 374.767,-112 374.767,4 -4,4"/>
<!-- GithubWrapper -->
<g id="node1" class="node"><title>GithubWrapper</title><style>.edge>path:hover{stroke-width:8}</style>
<ellipse fill="#b65353" stroke="black" cx="48.2704" cy="-90" rx="48.0418" ry="18"/>
<text text-anchor="middle" x="48.2704" y="-87.5" font-family="Helvetica,sans-Serif" font-size="10.00" fill="#ffffff">GithubWrapper</text>
</g>
<!-- server -->
<g id="node2" class="node"><title>server</title><style>.edge>path:hover{stroke-width:8}</style>
<ellipse fill="#8b439d" stroke="black" cx="161.27" cy="-18" rx="27" ry="18"/>
<text text-anchor="middle" x="161.27" y="-15.5" font-family="Helvetica,sans-Serif" font-size="10.00" fill="#ffffff">server</text>
</g>
<!-- GithubWrapper&#45;&gt;server -->
<g id="edge1" class="edge"><title>GithubWrapper&#45;&gt;server</title><style>.edge>path:hover{stroke-width:8}</style>
<path fill="none" stroke="black" d="M72.2348,-74.1548C90.1621,-63.0494 114.719,-47.8372 133.502,-36.2014"/>
<polygon fill="#b65353" stroke="black" points="135.547,-39.0518 142.205,-30.8102 131.861,-33.101 135.547,-39.0518"/>
</g>
<!-- GitlabWrapper -->
<g id="node3" class="node"><title>GitlabWrapper</title><style>.edge>path:hover{stroke-width:8}</style>
<ellipse fill="#a2b653" stroke="black" cx="161.27" cy="-90" rx="46.5087" ry="18"/>
<text text-anchor="middle" x="161.27" y="-87.5" font-family="Helvetica,sans-Serif" font-size="10.00" fill="#000000">GitlabWrapper</text>
</g>
<!-- GitlabWrapper&#45;&gt;server -->
<g id="edge2" class="edge"><title>GitlabWrapper&#45;&gt;server</title><style>.edge>path:hover{stroke-width:8}</style>
<path fill="none" stroke="black" d="M161.27,-71.6966C161.27,-63.9827 161.27,-54.7125 161.27,-46.1124"/>
<polygon fill="#a2b653" stroke="black" points="164.77,-46.1043 161.27,-36.1043 157.77,-46.1044 164.77,-46.1043"/>
</g>
<!-- flask -->
<g id="node4" class="node"><title>flask</title><style>.edge>path:hover{stroke-width:8}</style>
<ellipse fill="#40c073" stroke="black" cx="253.27" cy="-90" rx="27" ry="18"/>
<text text-anchor="middle" x="253.27" y="-87.5" font-family="Helvetica,sans-Serif" font-size="10.00" fill="#000000">flask</text>
</g>
<!-- flask&#45;&gt;server -->
<g id="edge3" class="edge"><title>flask&#45;&gt;server</title><style>.edge>path:hover{stroke-width:8}</style>
<path fill="none" stroke="black" d="M235.966,-75.8335C222.088,-65.2741 202.408,-50.3001 186.732,-38.3728"/>
<polygon fill="#40c073" stroke="black" points="188.575,-35.3773 178.497,-32.1074 184.336,-40.9481 188.575,-35.3773"/>
</g>
<!-- flask_cors -->
<g id="node5" class="node"><title>flask_cors</title><style>.edge>path:hover{stroke-width:8}</style>
<ellipse fill="#537bb6" stroke="black" cx="334.27" cy="-90" rx="36.4942" ry="18"/>
<text text-anchor="middle" x="334.27" y="-87.5" font-family="Helvetica,sans-Serif" font-size="10.00" fill="#ffffff">flask_cors</text>
</g>
<!-- flask_cors&#45;&gt;server -->
<g id="edge4" class="edge"><title>flask_cors&#45;&gt;server</title><style>.edge>path:hover{stroke-width:8}</style>
<path fill="none" stroke="black" d="M306.858,-77.9083C276.033,-65.4358 226.032,-45.2043 193.398,-31.9997"/>
<polygon fill="#537bb6" stroke="black" points="194.451,-28.6501 183.868,-28.1437 191.825,-35.1391 194.451,-28.6501"/>
</g>
</g>
</svg>
